<svg width="188" height="69" viewBox="0 0 188 69" fill="none" xmlns="http://www.w3.org/2000/svg">
<rect x="0.5" y="0.500244" width="186.847" height="67.9996" rx="10.2641" fill="#F4F4F4"/>
<path d="M43.3272 35.5308C43.364 32.6579 44.9009 29.9394 47.3391 28.4346C45.8009 26.2293 43.2247 24.8311 40.5443 24.7469C37.6855 24.4457 34.9141 26.4643 33.4573 26.4643C31.9723 26.4643 29.7293 24.7769 27.314 24.8267C24.1658 24.9289 21.2308 26.7258 19.6991 29.4889C16.4066 35.2116 18.8625 43.6221 22.0165 48.248C23.5945 50.5131 25.4387 53.0433 27.8518 52.9536C30.2132 52.8553 31.0951 51.4419 33.9455 51.4419C36.7695 51.4419 37.5969 52.9536 40.059 52.8965C42.5929 52.8552 44.1893 50.6213 45.712 48.3347C46.8457 46.7208 47.7182 44.9369 48.297 43.0494C45.3192 41.785 43.3306 38.7766 43.3272 35.5308Z" fill="#090909"/>
<path d="M38.6767 21.7048C40.0582 20.0398 40.7389 17.8997 40.5741 15.739C38.4633 15.9616 36.5136 16.9743 35.1133 18.5754C33.7441 20.1398 33.0315 22.2422 33.1663 24.3203C35.2778 24.3422 37.3535 23.3569 38.6767 21.7048Z" fill="#090909"/>
<path d="M127.551 32.5639V36.0453H125.377V38.3284H127.551V46.0859C127.551 48.7348 128.745 49.7943 131.748 49.7943C132.275 49.7943 132.778 49.7312 133.218 49.6556V47.3977C132.841 47.4355 132.602 47.4608 132.187 47.4608C130.843 47.4608 130.252 46.8301 130.252 45.3921V38.3284H133.218V36.0453H130.252V32.5639H127.551Z" fill="#090909"/>
<path d="M140.868 49.9835C144.863 49.9835 147.313 47.2968 147.313 42.8441C147.313 38.4167 144.851 35.7173 140.868 35.7173C136.872 35.7173 134.409 38.4167 134.409 42.8441C134.409 47.2968 136.859 49.9835 140.868 49.9835ZM140.868 47.5743C138.518 47.5743 137.199 45.8462 137.199 42.8441C137.199 39.8673 138.518 38.1266 140.868 38.1266C143.205 38.1266 144.537 39.8673 144.537 42.8441C144.537 45.8336 143.205 47.5743 140.868 47.5743Z" fill="#090909"/>
<path d="M149.41 49.7186H152.111V41.608C152.111 39.678 153.556 38.3788 155.604 38.3788C156.082 38.3788 156.886 38.4671 157.112 38.5428V35.8687C156.823 35.793 156.308 35.7552 155.906 35.7552C154.121 35.7552 152.601 36.739 152.212 38.0887H152.011V35.9822H149.41V49.7186Z" fill="#090909"/>
<path d="M163.819 38.0256C165.817 38.0256 167.124 39.4258 167.187 41.5827H160.276C160.427 39.4384 161.822 38.0256 163.819 38.0256ZM167.174 46.0102C166.672 47.0823 165.553 47.6752 163.92 47.6752C161.759 47.6752 160.364 46.1489 160.276 43.7397V43.5883H169.938V42.6423C169.938 38.3284 167.639 35.7173 163.832 35.7173C159.975 35.7173 157.524 38.505 157.524 42.8946C157.524 47.2842 159.924 49.9835 163.845 49.9835C166.973 49.9835 169.159 48.4699 169.775 46.0102H167.174Z" fill="#090909"/>
<path d="M109.835 44.646C110.044 48.019 112.844 50.1762 117.011 50.1762C121.465 50.1762 124.252 47.9144 124.252 44.3061C124.252 41.469 122.663 39.9002 118.808 38.9981L116.738 38.4882C114.289 37.913 113.3 37.1416 113.3 35.795C113.3 34.0954 114.836 32.9841 117.141 32.9841C119.329 32.9841 120.84 34.0693 121.113 35.8081H123.952C123.783 32.6311 120.996 30.3955 117.18 30.3955C113.078 30.3955 110.343 32.6311 110.343 35.9911C110.343 38.7628 111.893 40.4101 115.292 41.2076L117.714 41.7959C120.202 42.3842 121.296 43.2471 121.296 44.6852C121.296 46.3587 119.577 47.5745 117.233 47.5745C114.719 47.5745 112.974 46.4371 112.727 44.646H109.835Z" fill="#090909"/>
<path d="M81.8515 35.7552C79.9919 35.7552 78.3836 36.6886 77.5543 38.2527H77.3533V35.9822H74.7524V54.2848H77.4538V47.6374H77.6674C78.3836 49.0879 79.9291 49.9457 81.8766 49.9457C85.3319 49.9457 87.5307 47.2085 87.5307 42.8441C87.5307 38.4797 85.3319 35.7552 81.8515 35.7552ZM81.085 47.5112C78.8234 47.5112 77.4035 45.7201 77.4035 42.8567C77.4035 39.9808 78.8234 38.1896 81.0976 38.1896C83.3844 38.1896 84.7539 39.9429 84.7539 42.8441C84.7539 45.7579 83.3844 47.5112 81.085 47.5112Z" fill="#090909"/>
<path d="M96.9834 35.7552C95.1239 35.7552 93.5156 36.6886 92.6863 38.2527H92.4853V35.9822H89.8844V54.2848H92.5858V47.6374H92.7994C93.5156 49.0879 95.061 49.9457 97.0086 49.9457C100.464 49.9457 102.663 47.2085 102.663 42.8441C102.663 38.4797 100.464 35.7552 96.9834 35.7552ZM96.217 47.5112C93.9553 47.5112 92.5355 45.7201 92.5355 42.8567C92.5355 39.9808 93.9553 38.1896 96.2296 38.1896C98.5163 38.1896 99.8859 39.9429 99.8859 42.8441C99.8859 45.7579 98.5163 47.5112 96.217 47.5112Z" fill="#090909"/>
<path d="M69.9055 49.7186H73.005L66.22 30.8531H63.0815L56.2965 49.7186H59.2918L61.0239 44.7114H68.1865L69.9055 49.7186ZM64.501 34.2784H64.7224L67.4442 42.2535H61.7662L64.501 34.2784Z" fill="#090909"/>
<path d="M56.2197 17.5464V25.0034H58.9017C61.1152 25.0034 62.3969 23.634 62.3969 21.2516C62.3969 18.9055 61.1049 17.5464 58.9017 17.5464H56.2197ZM57.3728 18.6006H58.773C60.3121 18.6006 61.2233 19.5824 61.2233 21.2671C61.2233 22.9777 60.3276 23.9492 58.773 23.9492H57.3728V18.6006Z" fill="#090909"/>
<path d="M66.3225 25.1119C67.9595 25.1119 68.9633 24.0112 68.9633 22.187C68.9633 20.3731 67.9543 19.2672 66.3225 19.2672C64.6856 19.2672 63.6766 20.3731 63.6766 22.187C63.6766 24.0112 64.6804 25.1119 66.3225 25.1119ZM66.3225 24.1249C65.3599 24.1249 64.8194 23.4169 64.8194 22.187C64.8194 20.9674 65.3599 20.2543 66.3225 20.2543C67.28 20.2543 67.8256 20.9674 67.8256 22.187C67.8256 23.4118 67.28 24.1249 66.3225 24.1249Z" fill="#090909"/>
<path d="M77.5115 19.3757H76.4047L75.4061 23.6701H75.3186L74.1655 19.3757H73.1051L71.952 23.6701H71.8696L70.8658 19.3757H69.7437L71.288 25.0034H72.4256L73.5787 20.8589H73.6662L74.8244 25.0034H75.9723L77.5115 19.3757Z" fill="#090909"/>
<path d="M78.786 25.0034H79.8928V21.7116C79.8928 20.833 80.4127 20.2853 81.2312 20.2853C82.0496 20.2853 82.4409 20.7349 82.4409 21.6392V25.0034H83.5476V21.3602C83.5476 20.0217 82.8578 19.2672 81.6069 19.2672C80.7627 19.2672 80.2068 19.6445 79.934 20.2698H79.8516V19.3757H78.786V25.0034Z" fill="#090909"/>
<path d="M85.2906 25.0034H86.3974V17.1794H85.2906V25.0034Z" fill="#090909"/>
<path d="M90.5598 25.1119C92.1967 25.1119 93.2005 24.0112 93.2005 22.187C93.2005 20.3731 92.1916 19.2672 90.5598 19.2672C88.9228 19.2672 87.9139 20.3731 87.9139 22.187C87.9139 24.0112 88.9177 25.1119 90.5598 25.1119ZM90.5598 24.1249C89.5971 24.1249 89.0566 23.4169 89.0566 22.187C89.0566 20.9674 89.5971 20.2543 90.5598 20.2543C91.5172 20.2543 92.0629 20.9674 92.0629 22.187C92.0629 23.4118 91.5172 24.1249 90.5598 24.1249Z" fill="#090909"/>
<path d="M96.4981 24.1611C95.8958 24.1611 95.4583 23.8665 95.4583 23.3601C95.4583 22.864 95.8083 22.6004 96.5805 22.5487L97.9497 22.4609V22.9311C97.9497 23.6288 97.332 24.1611 96.4981 24.1611ZM96.215 25.0964C96.9511 25.0964 97.5637 24.776 97.8983 24.2128H97.9858V25.0034H99.0513V21.1586C99.0513 19.97 98.2586 19.2672 96.8533 19.2672C95.5818 19.2672 94.6758 19.8873 94.5626 20.8537H95.6333C95.7568 20.4558 96.1841 20.2284 96.8018 20.2284C97.5585 20.2284 97.9497 20.5643 97.9497 21.1586V21.6444L96.4312 21.7322C95.0979 21.8149 94.3464 22.3989 94.3464 23.4118C94.3464 24.4401 95.134 25.0964 96.215 25.0964Z" fill="#090909"/>
<path d="M102.807 25.0964C103.579 25.0964 104.233 24.7295 104.568 24.1146H104.655V25.0034H105.715V17.1794H104.609V20.2698H104.526C104.223 19.6496 103.574 19.2827 102.807 19.2827C101.391 19.2827 100.48 20.4093 100.48 22.187C100.48 23.9699 101.381 25.0964 102.807 25.0964ZM103.121 20.2801C104.048 20.2801 104.629 21.0191 104.629 22.1922C104.629 23.3704 104.053 24.0991 103.121 24.0991C102.184 24.0991 101.623 23.3807 101.623 22.187C101.623 21.0036 102.189 20.2801 103.121 20.2801Z" fill="#090909"/>
<path d="M112.892 25.1119C114.529 25.1119 115.533 24.0112 115.533 22.187C115.533 20.3731 114.524 19.2672 112.892 19.2672C111.255 19.2672 110.246 20.3731 110.246 22.187C110.246 24.0112 111.25 25.1119 112.892 25.1119ZM112.892 24.1249C111.93 24.1249 111.389 23.4169 111.389 22.187C111.389 20.9674 111.93 20.2543 112.892 20.2543C113.85 20.2543 114.395 20.9674 114.395 22.187C114.395 23.4118 113.85 24.1249 112.892 24.1249Z" fill="#090909"/>
<path d="M116.998 25.0034H118.105V21.7116C118.105 20.833 118.625 20.2853 119.443 20.2853C120.262 20.2853 120.653 20.7349 120.653 21.6392V25.0034H121.76V21.3602C121.76 20.0217 121.07 19.2672 119.819 19.2672C118.975 19.2672 118.419 19.6445 118.146 20.2698H118.064V19.3757H116.998V25.0034Z" fill="#090909"/>
<path d="M126.857 17.9753V19.4016H125.966V20.3369H126.857V23.5151C126.857 24.6003 127.346 25.0344 128.576 25.0344C128.792 25.0344 128.998 25.0086 129.179 24.9776V24.0526C129.024 24.0681 128.926 24.0784 128.756 24.0784C128.206 24.0784 127.964 23.82 127.964 23.2309V20.3369H129.179V19.4016H127.964V17.9753H126.857Z" fill="#090909"/>
<path d="M130.664 25.0034H131.771V21.7167C131.771 20.864 132.275 20.2904 133.181 20.2904C133.964 20.2904 134.381 20.7452 134.381 21.6444V25.0034H135.487V21.3705C135.487 20.032 134.751 19.2724 133.557 19.2724C132.713 19.2724 132.121 19.6496 131.848 20.2801H131.761V17.1794H130.664V25.0034Z" fill="#090909"/>
<path d="M139.48 20.2129C140.298 20.2129 140.834 20.7865 140.86 21.6702H138.028C138.09 20.7917 138.662 20.2129 139.48 20.2129ZM140.854 23.4841C140.649 23.9234 140.19 24.1662 139.521 24.1662C138.636 24.1662 138.064 23.5409 138.028 22.5539V22.4919H141.987V22.1043C141.987 20.3369 141.045 19.2672 139.485 19.2672C137.905 19.2672 136.901 20.4093 136.901 22.2077C136.901 24.006 137.884 25.1119 139.49 25.1119C140.772 25.1119 141.668 24.4918 141.92 23.4841H140.854Z" fill="#090909"/>
</svg>
