<svg width="183" height="69" viewBox="0 0 183 69" fill="none" xmlns="http://www.w3.org/2000/svg">
<rect x="0.347046" y="0.500244" width="182.444" height="67.9996" rx="10.2641" fill="#F4F4F4"/>
<g filter="url(#filter0_ii_112_58)">
<path d="M18.5578 17.7187C18.1636 18.1375 17.9305 18.7876 17.9305 19.6295V49.7071C17.9305 50.5502 18.1636 51.199 18.5578 51.6178L18.658 51.7158L35.4415 34.8668V34.6683V34.4697L18.658 17.6194L18.5578 17.7187Z" fill="url(#paint0_linear_112_58)"/>
<path d="M41.0346 40.4843L35.441 34.8662V34.6676V34.4691L41.036 28.8523L41.162 28.9244L47.7905 32.7052C49.6831 33.785 49.6831 35.5516 47.7905 36.6328L41.162 40.4136L41.0346 40.4843Z" fill="url(#paint1_linear_112_58)"/>
<g filter="url(#filter1_i_112_58)">
<path d="M41.1613 40.4131L35.439 34.6685L18.5566 51.618C19.1798 52.2817 20.2107 52.3633 21.3717 51.7024L41.1613 40.4131Z" fill="url(#paint2_linear_112_58)"/>
</g>
<path d="M41.1613 28.924L21.3717 17.636C20.2107 16.9737 19.1798 17.0567 18.5566 17.7203L35.4403 34.6699L41.1613 28.924Z" fill="url(#paint3_linear_112_58)"/>
</g>
<path d="M91.7757 37.3139C88.7664 37.3139 86.3136 39.6018 86.3136 42.7528C86.3136 45.8846 88.7664 48.1916 91.7757 48.1916C94.7863 48.1916 97.2391 45.8846 97.2391 42.7528C97.2378 39.6018 94.785 37.3139 91.7757 37.3139ZM91.7757 46.0509C90.1265 46.0509 88.705 44.6915 88.705 42.7541C88.705 40.7962 90.1277 39.4573 91.7757 39.4573C93.4249 39.4573 94.8464 40.7962 94.8464 42.7541C94.8464 44.6902 93.4249 46.0509 91.7757 46.0509ZM79.8587 37.3139C76.8493 37.3139 74.3966 39.6018 74.3966 42.7528C74.3966 45.8846 76.8493 48.1916 79.8587 48.1916C82.8693 48.1916 85.322 45.8846 85.322 42.7528C85.322 39.6018 82.8693 37.3139 79.8587 37.3139ZM79.8587 46.0509C78.2094 46.0509 76.7879 44.6915 76.7879 42.7541C76.7879 40.7962 78.2107 39.4573 79.8587 39.4573C81.5079 39.4573 82.9294 40.7962 82.9294 42.7541C82.9307 44.6902 81.5079 46.0509 79.8587 46.0509ZM65.6847 38.9841V41.2911H71.2094C71.0444 42.5891 70.6119 43.5367 69.9517 44.1953C69.1482 44.9984 67.8905 45.8846 65.6847 45.8846C62.2838 45.8846 59.6251 43.1441 59.6251 39.745C59.6251 36.3459 62.2838 33.6053 65.6847 33.6053C67.5194 33.6053 68.859 34.3266 69.8481 35.2538L71.4768 33.6258C70.095 32.3073 68.2615 31.2983 65.6847 31.2983C61.0261 31.2983 57.1096 35.0888 57.1096 39.745C57.1096 44.4012 61.0261 48.1916 65.6847 48.1916C68.1988 48.1916 70.0963 47.3668 71.5792 45.822C73.1043 44.2976 73.579 42.1543 73.579 40.424C73.579 39.8895 73.5381 39.3946 73.4549 38.9828L65.6847 38.9841ZM123.655 40.7757C123.202 39.5608 121.82 37.3139 118.997 37.3139C116.193 37.3139 113.863 39.5186 113.863 42.7528C113.863 45.8015 116.173 48.1916 119.264 48.1916C121.758 48.1916 123.201 46.6673 123.8 45.7811L121.944 44.5444C121.326 45.4511 120.481 46.0483 119.264 46.0483C118.048 46.0483 117.182 45.492 116.626 44.3999L123.902 41.3921L123.655 40.7757ZM116.234 42.5891C116.173 40.4867 117.863 39.4163 119.08 39.4163C120.028 39.4163 120.831 39.8908 121.1 40.5698L116.234 42.5891ZM110.319 47.863H112.709V31.8764H110.319V47.863ZM106.401 38.5301H106.319C105.783 37.8907 104.752 37.3139 103.455 37.3139C100.733 37.3139 98.2396 39.7041 98.2396 42.7745C98.2396 45.8233 100.733 48.1929 103.455 48.1929C104.753 48.1929 105.783 47.6162 106.319 46.9576H106.401V47.7402C106.401 49.8209 105.288 50.9334 103.496 50.9334C102.032 50.9334 101.125 49.8835 100.754 48.9973L98.6721 49.8631C99.2696 51.3043 100.856 53.0768 103.496 53.0768C106.299 53.0768 108.67 51.4284 108.67 47.4103V37.6452H106.403L106.401 38.5301ZM103.661 46.0509C102.012 46.0509 100.631 44.6698 100.631 42.7745C100.631 40.8576 102.012 39.4573 103.661 39.4573C105.288 39.4573 106.566 40.8576 106.566 42.7745C106.566 44.6698 105.288 46.0509 103.661 46.0509ZM134.856 31.8764H129.135V47.863H131.521V41.8065H134.854C137.5 41.8065 140.103 39.8921 140.103 36.8421C140.103 33.7921 137.502 31.8764 134.856 31.8764ZM134.917 39.5813H131.521V34.1015H134.917C136.702 34.1015 137.715 35.5786 137.715 36.8421C137.715 38.08 136.702 39.5813 134.917 39.5813ZM149.672 37.2858C147.943 37.2858 146.153 38.0467 145.413 39.7335L147.531 40.6172C147.984 39.7335 148.829 39.4445 149.713 39.4445C150.948 39.4445 152.203 40.1849 152.223 41.5008V41.6658C151.791 41.419 150.864 41.0494 149.733 41.0494C147.449 41.0494 145.123 42.3039 145.123 44.648C145.123 46.7875 146.997 48.1648 149.095 48.1648C150.699 48.1648 151.585 47.4448 152.14 46.6008H152.222V47.8349H154.528V41.7054C154.529 38.869 152.407 37.2858 149.672 37.2858ZM149.383 46.0471C148.602 46.0471 147.511 45.6557 147.511 44.6889C147.511 43.4549 148.87 42.9817 150.043 42.9817C151.091 42.9817 151.586 43.2081 152.223 43.5163C152.038 44.9984 150.762 46.0471 149.383 46.0471ZM162.923 37.6349L160.187 44.5662H160.105L157.264 37.6349H154.693L158.952 47.322L156.524 52.711H159.013L165.578 37.6349H162.923ZM141.421 47.863H143.807V31.8764H141.421V47.863Z" fill="#090909"/>
<path d="M65.3876 22.4205C65.3876 23.4727 65.0706 24.3103 64.4353 24.9356C63.7143 25.6789 62.7735 26.0506 61.6179 26.0506C60.5108 26.0506 59.5687 25.6739 58.7953 24.9205C58.0206 24.1659 57.6333 23.2317 57.6333 22.1166C57.6333 21.0004 58.0206 20.0661 58.7953 19.3128C59.5687 18.5581 60.5108 18.1814 61.6179 18.1814C62.1675 18.1814 62.6929 18.2869 63.1915 18.4966C63.6913 18.7075 64.0914 18.9875 64.3905 19.3379L63.7169 20.0009C63.2094 19.4044 62.5101 19.1068 61.6166 19.1068C60.8087 19.1068 60.1107 19.3856 59.5214 19.9431C58.9321 20.5006 58.6381 21.2251 58.6381 22.1154C58.6381 23.0056 58.9321 23.7302 59.5214 24.2877C60.1107 24.8452 60.8087 25.1239 61.6166 25.1239C62.4731 25.1239 63.1876 24.8439 63.7591 24.2826C64.1298 23.9173 64.3445 23.4087 64.402 22.757H61.6166V21.8517H65.3327C65.371 22.0488 65.3876 22.2384 65.3876 22.4205Z" fill="#090909"/>
<path d="M71.2809 19.2739H67.7885V21.6622H70.9383V22.5675H67.7885V24.9557H71.2809V25.8824H66.8029V18.3485H71.2809V19.2739Z" fill="#090909"/>
<path d="M75.4366 25.8824H74.451V19.2739H72.3085V18.3485H77.579V19.2739H75.4366V25.8824Z" fill="#090909"/>
<path d="M81.3922 25.8824V18.3485H82.3778V25.8824H81.3922Z" fill="#090909"/>
<path d="M86.7486 25.8824H85.7631V19.2739H83.6206V18.3485H88.8911V19.2739H86.7486V25.8824Z" fill="#090909"/>
<path d="M98.8682 24.9093C98.114 25.6702 97.177 26.0507 96.0559 26.0507C94.9348 26.0507 93.9978 25.6702 93.2448 24.9093C92.4906 24.1484 92.1148 23.2167 92.1148 22.1154C92.1148 21.0142 92.4906 20.0825 93.2448 19.3216C93.9978 18.5607 94.9348 18.179 96.0559 18.179C97.1706 18.179 98.1063 18.5619 98.8631 19.3266C99.6199 20.0913 99.9982 21.0205 99.9982 22.1154C99.9982 23.2167 99.6211 24.1484 98.8682 24.9093ZM93.9722 24.2777C94.5398 24.8427 95.2339 25.124 96.0559 25.124C96.8778 25.124 97.5732 24.8415 98.1395 24.2777C98.7071 23.7126 98.9922 22.9919 98.9922 22.1154C98.9922 21.239 98.7071 20.5182 98.1395 19.9532C97.5732 19.3882 96.8778 19.1069 96.0559 19.1069C95.2339 19.1069 94.5398 19.3894 93.9722 19.9532C93.4059 20.5182 93.1208 21.239 93.1208 22.1154C93.1208 22.9919 93.4059 23.7126 93.9722 24.2777Z" fill="#090909"/>
<path d="M101.381 25.8824V18.3485H102.58L106.308 24.2086H106.35L106.308 22.7571V18.3485H107.294V25.8824H106.265L102.364 19.7372H102.322L102.364 21.1888V25.8824H101.381Z" fill="#090909"/>
<path d="M65.3876 22.4205C65.3876 23.4727 65.0706 24.3103 64.4353 24.9356C63.7143 25.6789 62.7735 26.0506 61.6179 26.0506C60.5108 26.0506 59.5687 25.6739 58.7953 24.9205C58.0206 24.1659 57.6333 23.2317 57.6333 22.1166C57.6333 21.0004 58.0206 20.0661 58.7953 19.3128C59.5687 18.5581 60.5108 18.1814 61.6179 18.1814C62.1675 18.1814 62.6929 18.2869 63.1915 18.4966C63.6913 18.7075 64.0914 18.9875 64.3905 19.3379L63.7169 20.0009C63.2094 19.4044 62.5101 19.1068 61.6166 19.1068C60.8087 19.1068 60.1107 19.3856 59.5214 19.9431C58.9321 20.5006 58.6381 21.2251 58.6381 22.1154C58.6381 23.0056 58.9321 23.7302 59.5214 24.2877C60.1107 24.8452 60.8087 25.1239 61.6166 25.1239C62.4731 25.1239 63.1876 24.8439 63.7591 24.2826C64.1298 23.9173 64.3445 23.4087 64.402 22.757H61.6166V21.8517H65.3327C65.371 22.0488 65.3876 22.2384 65.3876 22.4205Z" stroke="white" stroke-width="0.0524781" stroke-miterlimit="10"/>
<path d="M71.2809 19.2739H67.7885V21.6622H70.9383V22.5675H67.7885V24.9557H71.2809V25.8824H66.8029V18.3485H71.2809V19.2739Z" stroke="white" stroke-width="0.0524781" stroke-miterlimit="10"/>
<path d="M75.4366 25.8824H74.451V19.2739H72.3085V18.3485H77.579V19.2739H75.4366V25.8824Z" stroke="white" stroke-width="0.0524781" stroke-miterlimit="10"/>
<path d="M81.3922 25.8824V18.3485H82.3778V25.8824H81.3922Z" stroke="white" stroke-width="0.0524781" stroke-miterlimit="10"/>
<path d="M86.7486 25.8824H85.7631V19.2739H83.6206V18.3485H88.8911V19.2739H86.7486V25.8824Z" stroke="white" stroke-width="0.0524781" stroke-miterlimit="10"/>
<path d="M98.8682 24.9093C98.114 25.6702 97.177 26.0507 96.0559 26.0507C94.9348 26.0507 93.9978 25.6702 93.2448 24.9093C92.4906 24.1484 92.1148 23.2167 92.1148 22.1154C92.1148 21.0142 92.4906 20.0825 93.2448 19.3216C93.9978 18.5607 94.9348 18.179 96.0559 18.179C97.1706 18.179 98.1063 18.5619 98.8631 19.3266C99.6199 20.0913 99.9982 21.0205 99.9982 22.1154C99.9982 23.2167 99.6211 24.1484 98.8682 24.9093ZM93.9722 24.2777C94.5398 24.8427 95.2339 25.124 96.0559 25.124C96.8778 25.124 97.5732 24.8415 98.1395 24.2777C98.7071 23.7126 98.9922 22.9919 98.9922 22.1154C98.9922 21.239 98.7071 20.5182 98.1395 19.9532C97.5732 19.3882 96.8778 19.1069 96.0559 19.1069C95.2339 19.1069 94.5398 19.3894 93.9722 19.9532C93.4059 20.5182 93.1208 21.239 93.1208 22.1154C93.1208 22.9919 93.4059 23.7126 93.9722 24.2777Z" stroke="white" stroke-width="0.0524781" stroke-miterlimit="10"/>
<path d="M101.381 25.8824V18.3485H102.58L106.308 24.2086H106.35L106.308 22.7571V18.3485H107.294V25.8824H106.265L102.364 19.7372H102.322L102.364 21.1888V25.8824H101.381Z" stroke="white" stroke-width="0.0524781" stroke-miterlimit="10"/>
<defs>
<filter id="filter0_ii_112_58" x="17.9305" y="17.179" width="31.2794" height="34.98" filterUnits="userSpaceOnUse" color-interpolation-filters="sRGB">
<feFlood flood-opacity="0" result="BackgroundImageFix"/>
<feBlend mode="normal" in="SourceGraphic" in2="BackgroundImageFix" result="shape"/>
<feColorMatrix in="SourceAlpha" type="matrix" values="0 0 0 0 0 0 0 0 0 0 0 0 0 0 0 0 0 0 127 0" result="hardAlpha"/>
<feOffset dy="-0.203999"/>
<feComposite in2="hardAlpha" operator="arithmetic" k2="-1" k3="1"/>
<feColorMatrix type="matrix" values="0 0 0 0 0 0 0 0 0 0 0 0 0 0 0 0 0 0 0.12 0"/>
<feBlend mode="normal" in2="shape" result="effect1_innerShadow_112_58"/>
<feColorMatrix in="SourceAlpha" type="matrix" values="0 0 0 0 0 0 0 0 0 0 0 0 0 0 0 0 0 0 127 0" result="hardAlpha"/>
<feOffset dy="0.203999"/>
<feComposite in2="hardAlpha" operator="arithmetic" k2="-1" k3="1"/>
<feColorMatrix type="matrix" values="0 0 0 0 1 0 0 0 0 1 0 0 0 0 1 0 0 0 0.25 0"/>
<feBlend mode="normal" in2="effect1_innerShadow_112_58" result="effect2_innerShadow_112_58"/>
</filter>
<filter id="filter1_i_112_58" x="18.5566" y="34.6685" width="22.6046" height="17.4905" filterUnits="userSpaceOnUse" color-interpolation-filters="sRGB">
<feFlood flood-opacity="0" result="BackgroundImageFix"/>
<feBlend mode="normal" in="SourceGraphic" in2="BackgroundImageFix" result="shape"/>
<feColorMatrix in="SourceAlpha" type="matrix" values="0 0 0 0 0 0 0 0 0 0 0 0 0 0 0 0 0 0 127 0" result="hardAlpha"/>
<feOffset dy="-0.203999"/>
<feComposite in2="hardAlpha" operator="arithmetic" k2="-1" k3="1"/>
<feColorMatrix type="matrix" values="0 0 0 0 0 0 0 0 0 0 0 0 0 0 0 0 0 0 0.08 0"/>
<feBlend mode="normal" in2="shape" result="effect1_innerShadow_112_58"/>
</filter>
<linearGradient id="paint0_linear_112_58" x1="33.9537" y1="19.3112" x2="11.1305" y2="42.0457" gradientUnits="userSpaceOnUse">
<stop stop-color="#00A0FF"/>
<stop offset="0.0066" stop-color="#00A1FF"/>
<stop offset="0.2601" stop-color="#00BEFF"/>
<stop offset="0.5122" stop-color="#00D2FF"/>
<stop offset="0.7604" stop-color="#00DFFF"/>
<stop offset="1" stop-color="#00E3FF"/>
</linearGradient>
<linearGradient id="paint1_linear_112_58" x1="50.2541" y1="34.6676" x2="17.4758" y2="34.6676" gradientUnits="userSpaceOnUse">
<stop stop-color="#FFE000"/>
<stop offset="0.4087" stop-color="#FFBD00"/>
<stop offset="0.7754" stop-color="#FFA500"/>
<stop offset="1" stop-color="#FF9C00"/>
</linearGradient>
<linearGradient id="paint2_linear_112_58" x1="38.0537" y1="37.7881" x2="7.10254" y2="68.619" gradientUnits="userSpaceOnUse">
<stop stop-color="#FF3A44"/>
<stop offset="1" stop-color="#C31162"/>
</linearGradient>
<linearGradient id="paint3_linear_112_58" x1="14.3048" y1="7.7078" x2="28.1253" y2="21.4746" gradientUnits="userSpaceOnUse">
<stop stop-color="#32A071"/>
<stop offset="0.0685" stop-color="#2DA771"/>
<stop offset="0.4762" stop-color="#15CF74"/>
<stop offset="0.8009" stop-color="#06E775"/>
<stop offset="1" stop-color="#00F076"/>
</linearGradient>
</defs>
</svg>
